# vtk DataFile Version 2.0
3D CUT-CELL SURFACE
ASCII
DATASET UNSTRUCTURED_GRID
POINTS       48 float
  0.00000000E+00    0.00000000E+00    0.00000000E+00
  0.12000000E+00    0.00000000E+00    0.00000000E+00
  0.12000000E+00    0.00000000E+00    0.00000000E+00
  0.24000000E+00    0.00000000E+00    0.00000000E+00
  0.24000000E+00    0.00000000E+00    0.00000000E+00
  0.36000000E+00    0.00000000E+00    0.00000000E+00
  0.36000000E+00    0.00000000E+00    0.00000000E+00
  0.48000000E+00    0.00000000E+00    0.00000000E+00
  0.48000000E+00    0.00000000E+00    0.00000000E+00
  0.60000000E+00    0.00000000E+00    0.00000000E+00
  0.60000000E+00    0.00000000E+00    0.00000000E+00
  0.72000000E+00    0.00000000E+00    0.00000000E+00
  0.72000000E+00    0.00000000E+00    0.00000000E+00
  0.84000000E+00    0.00000000E+00    0.00000000E+00
  0.84000000E+00    0.00000000E+00    0.00000000E+00
  0.96000000E+00    0.00000000E+00    0.00000000E+00
  0.96000000E+00    0.00000000E+00    0.00000000E+00
  0.10800000E+01    0.00000000E+00    0.00000000E+00
  0.10800000E+01    0.00000000E+00    0.00000000E+00
  0.12000000E+01    0.00000000E+00    0.00000000E+00
  0.00000000E+00    0.48000000E+00    0.00000000E+00
  0.00000000E+00    0.56000000E+00    0.00000000E+00
  0.00000000E+00    0.56000000E+00    0.00000000E+00
  0.00000000E+00    0.64000000E+00    0.00000000E+00
  0.00000000E+00    0.64000000E+00    0.00000000E+00
  0.00000000E+00    0.72000000E+00    0.00000000E+00
  0.00000000E+00    0.72000000E+00    0.00000000E+00
  0.00000000E+00    0.80000000E+00    0.00000000E+00
  0.12000000E+00    0.56000000E+01    0.00000000E+00
  0.00000000E+00    0.56000000E+01    0.00000000E+00
  0.24000000E+00    0.56000000E+01    0.00000000E+00
  0.12000000E+00    0.56000000E+01    0.00000000E+00
  0.36000000E+00    0.56000000E+01    0.00000000E+00
  0.24000000E+00    0.56000000E+01    0.00000000E+00
  0.48000000E+00    0.56000000E+01    0.00000000E+00
  0.36000000E+00    0.56000000E+01    0.00000000E+00
  0.60000000E+00    0.56000000E+01    0.00000000E+00
  0.48000000E+00    0.56000000E+01    0.00000000E+00
  0.72000000E+00    0.56000000E+01    0.00000000E+00
  0.60000000E+00    0.56000000E+01    0.00000000E+00
  0.84000000E+00    0.56000000E+01    0.00000000E+00
  0.72000000E+00    0.56000000E+01    0.00000000E+00
  0.96000000E+00    0.56000000E+01    0.00000000E+00
  0.84000000E+00    0.56000000E+01    0.00000000E+00
  0.10800000E+01    0.56000000E+01    0.00000000E+00
  0.96000000E+00    0.56000000E+01    0.00000000E+00
  0.12000000E+01    0.56000000E+01    0.00000000E+00
  0.10800000E+01    0.56000000E+01    0.00000000E+00
CELLS       24        72
       2         0         1
       2         2         3
       2         4         5
       2         6         7
       2         8         9
       2        10        11
       2        12        13
       2        14        15
       2        16        17
       2        18        19
       2        20        21
       2        22        23
       2        24        25
       2        26        27
       2        28        29
       2        30        31
       2        32        33
       2        34        35
       2        36        37
       2        38        39
       2        40        41
       2        42        43
       2        44        45
       2        46        47
CELL_TYPES       24
       3
       3
       3
       3
       3
       3
       3
       3
       3
       3
       3
       3
       3
       3
       3
       3
       3
       3
       3
       3
       3
       3
       3
       3
CELL_DATA       24
SCALARS bc_id int 1
LOOKUP_TABLE default
       1
       1
       1
       1
       1
       1
       1
       1
       1
       1
       2
       2
       2
       2
       5
       5
       5
       5
       5
       5
       5
       5
       5
       5
SCALARS small_cell int 1
LOOKUP_TABLE default
       0
       0
       0
       0
       0
       0
       0
       0
       0
       0
       0
       0
       0
       0
       0
       0
       0
       0
       0
       0
       0
       0
       0
       0
