#usda 1.0
(
    defaultPrim = "World"
    upAxis = "Y"
)

def Xform "World"
{
    def Scope "CFD"
    {
        def Mesh "Mesh" (
            customData = {
                string sourceAssociation = "VTU CellData"
                string faceToCellMapping = "USD face index equals source VTK cell index"
            }
        )
        {
        int[] faceVertexCounts = [4, 4, 4, 4, 4, 4, 4, 4, 4, 4, 4, 4, 4, 4, 4, 4, 4, 4, 4, 4, 4, 4, 4, 4, 4, 4, 4, 4, 4, 4, 4, 4, 4, 4, 4, 4, 4, 4, 4, 4, 4, 4, 4, 4, 4, 4, 4, 4, 4, 4, 4, 4, 4, 4, 4, 4, 4, 4, 4, 4, 4, 4, 4, 4, 4, 4, 4, 4, 4, 4, 4, 4, 4, 4, 4, 4, 4, 4, 4, 4, 4, 4, 4, 4, 4, 4, 4, 4, 4, 4, 4, 4, 4, 4, 4, 4, 4, 4, 4, 4, 4, 4, 4, 4, 4, 4, 4, 4, 4, 4, 4, 4, 4, 4, 4, 4, 4, 4, 4, 4, 4, 4, 4, 4, 4, 4, 4, 4, 4, 4, 4, 4, 4, 4, 4, 4, 4, 4, 4, 4, 4, 4, 4, 4, 4, 4, 4, 4, 4, 4, 4, 4, 4, 4, 4, 4, 4, 4, 4, 4, 4, 4, 4, 4, 4, 4, 4, 4, 4, 4, 4, 4, 4, 4, 4, 4, 4, 4, 4, 4, 4, 4, 4, 4, 4, 4, 4, 4, 4, 4, 4, 4, 4, 4, 4, 4, 4, 4, 4, 4, 4, 4, 4, 4, 4, 4, 4, 4, 4, 4, 4, 4, 4, 4, 4, 4, 4, 4, 4, 4, 4, 4, 4, 4, 4, 4, 4, 4, 4, 4, 4, 4, 4, 4, 4, 4, 4, 4, 4, 4, 4, 4, 4, 4, 4, 4, 4, 4, 4, 4, 4, 4, 4, 4, 4, 4, 4, 4, 4, 4, 4, 4, 4, 4, 4, 4, 4, 4, 4, 4, 4, 4, 4, 4, 4, 4, 4, 4, 4, 4, 4, 4, 4, 4, 4, 4, 4, 4, 4, 4, 4, 4, 4, 4, 4, 4, 4, 4, 4, 4, 4, 4, 4, 4, 4, 4, 4, 4, 4, 4, 4, 4, 4, 4, 4, 4, 4, 4, 4, 4, 4, 4, 4, 4, 4, 4, 4, 4, 4, 4, 4, 4, 4, 4, 4, 4, 4, 4, 4, 4, 4, 4, 4, 4, 4, 4, 4, 4, 4, 4, 4, 4, 4, 4, 4, 4, 4, 4, 4, 4, 4, 4, 4, 4, 4, 4, 4, 4, 4, 4, 4, 4, 4, 4, 4, 4, 4, 4, 4, 4, 4, 4, 4, 4, 4, 4, 4, 4, 4, 4, 4, 4, 4, 4, 4, 4, 4, 4, 4, 4, 4, 4, 4, 4, 4, 4, 4, 4, 4, 4, 4, 4, 4, 4, 4, 4, 4, 4, 4, 4, 4, 4, 4, 4, 4, 4, 4, 4, 4, 4, 4, 4, 4, 4, 4, 4, 4, 4, 4, 4, 4, 4, 4, 4, 4, 4, 4, 4, 4, 4, 4, 4, 4, 4, 4, 4, 4, 4, 4, 4, 4, 4, 4, 4, 4, 4, 4, 4, 4, 4, 4, 4, 4, 4, 4, 4, 4, 4, 4, 4, 4, 4, 4, 4, 4, 4, 4, 4, 4, 4, 4, 4, 4, 4, 4, 4, 4, 4, 4, 4, 4, 4, 4, 4, 4, 4, 4, 4, 4, 4, 4, 4, 4, 4, 4, 4, 4, 4, 4, 4, 4, 4, 4, 4, 4, 4, 4, 4, 4, 4, 4, 4, 4, 4, 4, 4, 4, 4, 4, 4, 4, 4, 4, 4, 4, 4, 4, 4, 4, 4, 4, 4, 4, 4, 4, 4, 4, 4, 4, 4, 4, 4, 4, 4, 4, 4, 4, 4, 4, 4, 4, 4, 4, 4, 4, 4, 4, 4, 4, 4, 4, 4, 4, 4, 4, 4, 4, 4, 4, 4, 4, 4, 4, 4, 4, 4, 4, 4, 4, 4, 4, 4, 4, 4, 4, 4, 4, 4, 4, 4, 4, 4, 4, 4, 4, 4, 4, 4, 4, 4, 4, 4, 4, 4, 4, 4, 4, 4, 4, 4, 4, 4, 4, 4, 4, 4, 4, 4, 4, 4, 4, 4, 4, 4, 4, 4, 4, 4, 4, 4, 4, 4, 4, 4, 4, 4, 4, 4, 4, 4, 4, 4, 4, 4, 4, 4, 4, 4, 4, 4, 4, 4, 4, 4, 4, 4, 4, 4, 4, 4, 4, 4, 4, 4, 4, 4, 4, 4, 4, 4, 4, 4, 4, 4, 4, 4, 4, 4, 4, 4]
        int[] faceVertexIndices = [0, 71, 72, 1, 1, 72, 73, 2, 2, 73, 74, 3, 3, 74, 75, 4, 4, 75, 76, 5, 5, 76, 77, 6, 6, 77, 78, 7, 7, 78, 79, 8, 8, 79, 80, 9, 9, 80, 81, 10, 10, 81, 82, 11, 11, 82, 83, 12, 12, 83, 84, 13, 13, 84, 85, 14, 14, 85, 86, 15, 15, 86, 87, 16, 16, 87, 88, 17, 17, 88, 89, 18, 18, 89, 90, 19, 19, 90, 91, 20, 20, 91, 92, 21, 21, 92, 93, 22, 22, 93, 94, 23, 23, 94, 95, 24, 24, 95, 96, 25, 25, 96, 97, 26, 26, 97, 98, 27, 27, 98, 99, 28, 28, 99, 100, 29, 29, 100, 101, 30, 30, 101, 102, 31, 31, 102, 103, 32, 32, 103, 104, 33, 33, 104, 105, 34, 34, 105, 106, 35, 35, 106, 107, 36, 36, 107, 108, 37, 37, 108, 109, 38, 38, 109, 110, 39, 39, 110, 111, 40, 40, 111, 112, 41, 41, 112, 113, 42, 42, 113, 114, 43, 43, 114, 115, 44, 44, 115, 116, 45, 45, 116, 117, 46, 46, 117, 118, 47, 47, 118, 119, 48, 48, 119, 120, 49, 49, 120, 121, 50, 50, 121, 122, 51, 51, 122, 123, 52, 52, 123, 124, 53, 53, 124, 125, 54, 54, 125, 126, 55, 55, 126, 127, 56, 56, 127, 128, 57, 57, 128, 129, 58, 58, 129, 130, 59, 59, 130, 131, 60, 60, 131, 132, 61, 61, 132, 133, 62, 62, 133, 134, 63, 63, 134, 135, 64, 64, 135, 136, 65, 65, 136, 137, 66, 66, 137, 138, 67, 67, 138, 139, 68, 68, 139, 140, 69, 69, 140, 141, 70, 71, 142, 143, 72, 72, 143, 144, 73, 73, 144, 145, 74, 74, 145, 146, 75, 75, 146, 147, 76, 76, 147, 148, 77, 77, 148, 149, 78, 78, 149, 150, 79, 79, 150, 151, 80, 80, 151, 152, 81, 81, 152, 153, 82, 82, 153, 154, 83, 83, 154, 155, 84, 84, 155, 156, 85, 85, 156, 157, 86, 86, 157, 158, 87, 87, 158, 159, 88, 88, 159, 160, 89, 89, 160, 161, 90, 90, 161, 162, 91, 91, 162, 163, 92, 92, 163, 164, 93, 93, 164, 165, 94, 94, 165, 166, 95, 95, 166, 167, 96, 96, 167, 168, 97, 97, 168, 169, 98, 98, 169, 170, 99, 99, 170, 171, 100, 100, 171, 172, 101, 101, 172, 173, 102, 102, 173, 174, 103, 103, 174, 175, 104, 104, 175, 176, 105, 105, 176, 177, 106, 106, 177, 178, 107, 107, 178, 179, 108, 108, 179, 180, 109, 109, 180, 181, 110, 110, 181, 182, 111, 111, 182, 183, 112, 112, 183, 184, 113, 113, 184, 185, 114, 114, 185, 186, 115, 115, 186, 187, 116, 116, 187, 188, 117, 117, 188, 189, 118, 118, 189, 190, 119, 119, 190, 191, 120, 120, 191, 192, 121, 121, 192, 193, 122, 122, 193, 194, 123, 123, 194, 195, 124, 124, 195, 196, 125, 125, 196, 197, 126, 126, 197, 198, 127, 127, 198, 199, 128, 128, 199, 200, 129, 129, 200, 201, 130, 130, 201, 202, 131, 131, 202, 203, 132, 132, 203, 204, 133, 133, 204, 205, 134, 134, 205, 206, 135, 135, 206, 207, 136, 136, 207, 208, 137, 137, 208, 209, 138, 138, 209, 210, 139, 139, 210, 211, 140, 140, 211, 212, 141, 142, 213, 214, 143, 143, 214, 215, 144, 144, 215, 216, 145, 145, 216, 217, 146, 146, 217, 218, 147, 147, 218, 219, 148, 148, 219, 220, 149, 149, 220, 221, 150, 150, 221, 222, 151, 151, 222, 223, 152, 152, 223, 224, 153, 153, 224, 225, 154, 154, 225, 226, 155, 155, 226, 227, 156, 156, 227, 228, 157, 157, 228, 229, 158, 158, 229, 230, 159, 159, 230, 231, 160, 160, 231, 232, 161, 161, 232, 233, 162, 162, 233, 234, 163, 163, 234, 235, 164, 164, 235, 236, 165, 165, 236, 237, 166, 166, 237, 238, 167, 167, 238, 239, 168, 168, 239, 240, 169, 169, 240, 241, 170, 170, 241, 242, 171, 171, 242, 243, 172, 172, 243, 244, 173, 173, 244, 245, 174, 174, 245, 246, 175, 175, 246, 247, 176, 176, 247, 248, 177, 177, 248, 249, 178, 178, 249, 250, 179, 179, 250, 251, 180, 180, 251, 252, 181, 181, 252, 253, 182, 182, 253, 254, 183, 183, 254, 255, 184, 184, 255, 256, 185, 185, 256, 257, 186, 186, 257, 258, 187, 187, 258, 259, 188, 188, 259, 260, 189, 189, 260, 261, 190, 190, 261, 262, 191, 191, 262, 263, 192, 192, 263, 264, 193, 193, 264, 265, 194, 194, 265, 266, 195, 195, 266, 267, 196, 196, 267, 268, 197, 197, 268, 269, 198, 198, 269, 270, 199, 199, 270, 271, 200, 200, 271, 272, 201, 201, 272, 273, 202, 202, 273, 274, 203, 203, 274, 275, 204, 204, 275, 276, 205, 205, 276, 277, 206, 206, 277, 278, 207, 207, 278, 279, 208, 208, 279, 280, 209, 209, 280, 281, 210, 210, 281, 282, 211, 211, 282, 283, 212, 213, 284, 285, 214, 214, 285, 286, 215, 215, 286, 287, 216, 216, 287, 288, 217, 217, 288, 289, 218, 218, 289, 290, 219, 219, 290, 291, 220, 220, 291, 292, 221, 221, 292, 293, 222, 222, 293, 294, 223, 223, 294, 295, 224, 224, 295, 296, 225, 225, 296, 297, 226, 226, 297, 298, 227, 227, 298, 299, 228, 228, 299, 300, 229, 229, 300, 301, 230, 230, 301, 302, 231, 231, 302, 303, 232, 232, 303, 304, 233, 233, 304, 305, 234, 234, 305, 306, 235, 235, 306, 307, 236, 236, 307, 308, 237, 237, 308, 309, 238, 238, 309, 310, 239, 239, 310, 311, 240, 240, 311, 312, 241, 241, 312, 313, 242, 242, 313, 314, 243, 243, 314, 315, 244, 244, 315, 316, 245, 245, 316, 317, 246, 246, 317, 318, 247, 247, 318, 319, 248, 248, 319, 320, 249, 249, 320, 321, 250, 250, 321, 322, 251, 251, 322, 323, 252, 252, 323, 324, 253, 253, 324, 325, 254, 254, 325, 326, 255, 255, 326, 327, 256, 256, 327, 328, 257, 257, 328, 329, 258, 258, 329, 330, 259, 259, 330, 331, 260, 260, 331, 332, 261, 261, 332, 333, 262, 262, 333, 334, 263, 263, 334, 335, 264, 264, 335, 336, 265, 265, 336, 337, 266, 266, 337, 338, 267, 267, 338, 339, 268, 268, 339, 340, 269, 269, 340, 341, 270, 270, 341, 342, 271, 271, 342, 343, 272, 272, 343, 344, 273, 273, 344, 345, 274, 274, 345, 346, 275, 275, 346, 347, 276, 276, 347, 348, 277, 277, 348, 349, 278, 278, 349, 350, 279, 279, 350, 351, 280, 280, 351, 352, 281, 281, 352, 353, 282, 282, 353, 354, 283, 284, 355, 356, 285, 285, 356, 357, 286, 286, 357, 358, 287, 287, 358, 359, 288, 288, 359, 360, 289, 289, 360, 361, 290, 290, 361, 362, 291, 291, 362, 363, 292, 292, 363, 364, 293, 293, 364, 365, 294, 294, 365, 366, 295, 295, 366, 367, 296, 296, 367, 368, 297, 297, 368, 369, 298, 298, 369, 370, 299, 299, 370, 371, 300, 300, 371, 372, 301, 301, 372, 373, 302, 302, 373, 374, 303, 303, 374, 375, 304, 304, 375, 376, 305, 305, 376, 377, 306, 306, 377, 378, 307, 307, 378, 379, 308, 308, 379, 380, 309, 309, 380, 381, 310, 310, 381, 382, 311, 311, 382, 383, 312, 312, 383, 384, 313, 313, 384, 385, 314, 314, 385, 386, 315, 315, 386, 387, 316, 316, 387, 388, 317, 317, 388, 389, 318, 318, 389, 390, 319, 319, 390, 391, 320, 320, 391, 392, 321, 321, 392, 393, 322, 322, 393, 394, 323, 323, 394, 395, 324, 324, 395, 396, 325, 325, 396, 397, 326, 326, 397, 398, 327, 327, 398, 399, 328, 328, 399, 400, 329, 329, 400, 401, 330, 330, 401, 402, 331, 331, 402, 403, 332, 332, 403, 404, 333, 333, 404, 405, 334, 334, 405, 406, 335, 335, 406, 407, 336, 336, 407, 408, 337, 337, 408, 409, 338, 338, 409, 410, 339, 339, 410, 411, 340, 340, 411, 412, 341, 341, 412, 413, 342, 342, 413, 414, 343, 343, 414, 415, 344, 344, 415, 416, 345, 345, 416, 417, 346, 346, 417, 418, 347, 347, 418, 419, 348, 348, 419, 420, 349, 349, 420, 421, 350, 350, 421, 422, 351, 351, 422, 423, 352, 352, 423, 424, 353, 353, 424, 425, 354, 355, 426, 427, 356, 356, 427, 428, 357, 357, 428, 429, 358, 358, 429, 430, 359, 359, 430, 431, 360, 360, 431, 432, 361, 361, 432, 433, 362, 362, 433, 434, 363, 363, 434, 435, 364, 364, 435, 436, 365, 365, 436, 437, 366, 366, 437, 438, 367, 367, 438, 439, 368, 368, 439, 440, 369, 369, 440, 441, 370, 370, 441, 442, 371, 371, 442, 443, 372, 372, 443, 444, 373, 373, 444, 445, 374, 374, 445, 446, 375, 375, 446, 447, 376, 376, 447, 448, 377, 377, 448, 449, 378, 378, 449, 450, 379, 379, 450, 451, 380, 380, 451, 452, 381, 381, 452, 453, 382, 382, 453, 454, 383, 383, 454, 455, 384, 384, 455, 456, 385, 385, 456, 457, 386, 386, 457, 458, 387, 387, 458, 459, 388, 388, 459, 460, 389, 389, 460, 461, 390, 390, 461, 462, 391, 391, 462, 463, 392, 392, 463, 464, 393, 393, 464, 465, 394, 394, 465, 466, 395, 395, 466, 467, 396, 396, 467, 468, 397, 397, 468, 469, 398, 398, 469, 470, 399, 399, 470, 471, 400, 400, 471, 472, 401, 401, 472, 473, 402, 402, 473, 474, 403, 403, 474, 475, 404, 404, 475, 476, 405, 405, 476, 477, 406, 406, 477, 478, 407, 407, 478, 479, 408, 408, 479, 480, 409, 409, 480, 481, 410, 410, 481, 482, 411, 411, 482, 483, 412, 412, 483, 484, 413, 413, 484, 485, 414, 414, 485, 486, 415, 415, 486, 487, 416, 416, 487, 488, 417, 417, 488, 489, 418, 418, 489, 490, 419, 419, 490, 491, 420, 420, 491, 492, 421, 421, 492, 493, 422, 422, 493, 494, 423, 423, 494, 495, 424, 424, 495, 496, 425, 426, 497, 498, 427, 427, 498, 499, 428, 428, 499, 500, 429, 429, 500, 501, 430, 430, 501, 502, 431, 431, 502, 503, 432, 432, 503, 504, 433, 433, 504, 505, 434, 434, 505, 506, 435, 435, 506, 507, 436, 436, 507, 508, 437, 437, 508, 509, 438, 438, 509, 510, 439, 439, 510, 511, 440, 440, 511, 512, 441, 441, 512, 513, 442, 442, 513, 514, 443, 443, 514, 515, 444, 444, 515, 516, 445, 445, 516, 517, 446, 446, 517, 518, 447, 447, 518, 519, 448, 448, 519, 520, 449, 449, 520, 521, 450, 450, 521, 522, 451, 451, 522, 523, 452, 452, 523, 524, 453, 453, 524, 525, 454, 454, 525, 526, 455, 455, 526, 527, 456, 456, 527, 528, 457, 457, 528, 529, 458, 458, 529, 530, 459, 459, 530, 531, 460, 460, 531, 532, 461, 461, 532, 533, 462, 462, 533, 534, 463, 463, 534, 535, 464, 464, 535, 536, 465, 465, 536, 537, 466, 466, 537, 538, 467, 467, 538, 539, 468, 468, 539, 540, 469, 469, 540, 541, 470, 470, 541, 542, 471, 471, 542, 543, 472, 472, 543, 544, 473, 473, 544, 545, 474, 474, 545, 546, 475, 475, 546, 547, 476, 476, 547, 548, 477, 477, 548, 549, 478, 478, 549, 550, 479, 479, 550, 551, 480, 480, 551, 552, 481, 481, 552, 553, 482, 482, 553, 554, 483, 483, 554, 555, 484, 484, 555, 556, 485, 485, 556, 557, 486, 486, 557, 558, 487, 487, 558, 559, 488, 488, 559, 560, 489, 489, 560, 561, 490, 490, 561, 562, 491, 491, 562, 563, 492, 492, 563, 564, 493, 493, 564, 565, 494, 494, 565, 566, 495, 495, 566, 567, 496, 497, 568, 569, 498, 498, 569, 570, 499, 499, 570, 571, 500, 500, 571, 572, 501, 501, 572, 573, 502, 502, 573, 574, 503, 503, 574, 575, 504, 504, 575, 576, 505, 505, 576, 577, 506, 506, 577, 578, 507, 507, 578, 579, 508, 508, 579, 580, 509, 509, 580, 581, 510, 510, 581, 582, 511, 511, 582, 583, 512, 512, 583, 584, 513, 513, 584, 585, 514, 514, 585, 586, 515, 515, 586, 587, 516, 516, 587, 588, 517, 517, 588, 589, 518, 518, 589, 590, 519, 519, 590, 591, 520, 520, 591, 592, 521, 521, 592, 593, 522, 522, 593, 594, 523, 523, 594, 595, 524, 524, 595, 596, 525, 525, 596, 597, 526, 526, 597, 598, 527, 527, 598, 599, 528, 528, 599, 600, 529, 529, 600, 601, 530, 530, 601, 602, 531, 531, 602, 603, 532, 532, 603, 604, 533, 533, 604, 605, 534, 534, 605, 606, 535, 535, 606, 607, 536, 536, 607, 608, 537, 537, 608, 609, 538, 538, 609, 610, 539, 539, 610, 611, 540, 540, 611, 612, 541, 541, 612, 613, 542, 542, 613, 614, 543, 543, 614, 615, 544, 544, 615, 616, 545, 545, 616, 617, 546, 546, 617, 618, 547, 547, 618, 619, 548, 548, 619, 620, 549, 549, 620, 621, 550, 550, 621, 622, 551, 551, 622, 623, 552, 552, 623, 624, 553, 553, 624, 625, 554, 554, 625, 626, 555, 555, 626, 627, 556, 556, 627, 628, 557, 557, 628, 629, 558, 558, 629, 630, 559, 559, 630, 631, 560, 560, 631, 632, 561, 561, 632, 633, 562, 562, 633, 634, 563, 563, 634, 635, 564, 564, 635, 636, 565, 565, 636, 637, 566, 566, 637, 638, 567, 568, 639, 640, 569, 569, 640, 641, 570, 570, 641, 642, 571, 571, 642, 643, 572, 572, 643, 644, 573, 573, 644, 645, 574, 574, 645, 646, 575, 575, 646, 647, 576, 576, 647, 648, 577, 577, 648, 649, 578, 578, 649, 650, 579, 579, 650, 651, 580, 580, 651, 652, 581, 581, 652, 653, 582, 582, 653, 654, 583, 583, 654, 655, 584, 584, 655, 656, 585, 585, 656, 657, 586, 586, 657, 658, 587, 587, 658, 659, 588, 588, 659, 660, 589, 589, 660, 661, 590, 590, 661, 662, 591, 591, 662, 663, 592, 592, 663, 664, 593, 593, 664, 665, 594, 594, 665, 666, 595, 595, 666, 667, 596, 596, 667, 668, 597, 597, 668, 669, 598, 598, 669, 670, 599, 599, 670, 671, 600, 600, 671, 672, 601, 601, 672, 673, 602, 602, 673, 674, 603, 603, 674, 675, 604, 604, 675, 676, 605, 605, 676, 677, 606, 606, 677, 678, 607, 607, 678, 679, 608, 608, 679, 680, 609, 609, 680, 681, 610, 610, 681, 682, 611, 611, 682, 683, 612, 612, 683, 684, 613, 613, 684, 685, 614, 614, 685, 686, 615, 615, 686, 687, 616, 616, 687, 688, 617, 617, 688, 689, 618, 618, 689, 690, 619, 619, 690, 691, 620, 620, 691, 692, 621, 621, 692, 693, 622, 622, 693, 694, 623, 623, 694, 695, 624, 624, 695, 696, 625, 625, 696, 697, 626, 626, 697, 698, 627, 627, 698, 699, 628, 628, 699, 700, 629, 629, 700, 701, 630, 630, 701, 702, 631, 631, 702, 703, 632, 632, 703, 704, 633, 633, 704, 705, 634, 634, 705, 706, 635, 635, 706, 707, 636, 636, 707, 708, 637, 637, 708, 709, 638, 639, 710, 711, 640, 640, 711, 712, 641, 641, 712, 713, 642, 642, 713, 714, 643, 643, 714, 715, 644, 644, 715, 716, 645, 645, 716, 717, 646, 646, 717, 718, 647, 647, 718, 719, 648, 648, 719, 720, 649, 649, 720, 721, 650, 650, 721, 722, 651, 651, 722, 723, 652, 652, 723, 724, 653, 653, 724, 725, 654, 654, 725, 726, 655, 655, 726, 727, 656, 656, 727, 728, 657, 657, 728, 729, 658, 658, 729, 730, 659, 659, 730, 731, 660, 660, 731, 732, 661, 661, 732, 733, 662, 662, 733, 734, 663, 663, 734, 735, 664, 664, 735, 736, 665, 665, 736, 737, 666, 666, 737, 738, 667, 667, 738, 739, 668, 668, 739, 740, 669, 669, 740, 741, 670, 670, 741, 742, 671, 671, 742, 743, 672, 672, 743, 744, 673, 673, 744, 745, 674, 674, 745, 746, 675, 675, 746, 747, 676, 676, 747, 748, 677, 677, 748, 749, 678, 678, 749, 750, 679, 679, 750, 751, 680, 680, 751, 752, 681, 681, 752, 753, 682, 682, 753, 754, 683, 683, 754, 755, 684, 684, 755, 756, 685, 685, 756, 757, 686, 686, 757, 758, 687, 687, 758, 759, 688, 688, 759, 760, 689, 689, 760, 761, 690, 690, 761, 762, 691, 691, 762, 763, 692, 692, 763, 764, 693, 693, 764, 765, 694, 694, 765, 766, 695, 695, 766, 767, 696, 696, 767, 768, 697, 697, 768, 769, 698, 698, 769, 770, 699, 699, 770, 771, 700, 700, 771, 772, 701, 701, 772, 773, 702, 702, 773, 774, 703, 703, 774, 775, 704, 704, 775, 776, 705, 705, 776, 777, 706, 706, 777, 778, 707, 707, 778, 779, 708, 708, 779, 780, 709]
        point3f[] points = [(0, 0, 0), (0, 0.0799999982, 0), (0, 0.159999996, 0), (0, 0.239999995, 0), (0, 0.319999993, 0), (0, 0.400000006, 0), (0, 0.479999989, 0), (0, 0.560000002, 0), (0, 0.639999986, 0), (0, 0.720000029, 0), (0, 0.800000012, 0), (0, 0.879999995, 0), (0, 0.959999979, 0), (0, 1.03999996, 0), (0, 1.12, 0), (0, 1.20000005, 0), (0, 1.27999997, 0), (0, 1.36000001, 0), (0, 1.44000006, 0), (0, 1.51999998, 0), (0, 1.60000002, 0), (0, 1.67999995, 0), (0, 1.75999999, 0), (0, 1.84000003, 0), (0, 1.91999996, 0), (0, 2, 0), (0, 2.07999992, 0), (0, 2.16000009, 0), (0, 2.24000001, 0), (0, 2.31999993, 0), (0, 2.4000001, 0), (0, 2.48000002, 0), (0, 2.55999994, 0), (0, 2.6400001, 0), (0, 2.72000003, 0), (0, 2.79999995, 0), (0, 2.88000011, 0), (0, 2.96000004, 0), (0, 3.03999996, 0), (0, 3.11999989, 0), (0, 3.20000005, 0), (0, 3.27999997, 0), (0, 3.3599999, 0), (0, 3.44000006, 0), (0, 3.51999998, 0), (0, 3.5999999, 0), (0, 3.68000007, 0), (0, 3.75999999, 0), (0, 3.83999991, 0), (0, 3.92000008, 0), (0, 4, 0), (0, 4.07999992, 0), (0, 4.15999985, 0), (0, 4.23999977, 0), (0, 4.32000017, 0), (0, 4.4000001, 0), (0, 4.48000002, 0), (0, 4.55999994, 0), (0, 4.63999987, 0), (0, 4.71999979, 0), (0, 4.80000019, 0), (0, 4.88000011, 0), (0, 4.96000004, 0), (0, 5.03999996, 0), (0, 5.11999989, 0), (0, 5.19999981, 0), (0, 5.28000021, 0), (0, 5.36000013, 0), (0, 5.44000006, 0), (0, 5.51999998, 0), (0, 5.5999999, 0), (0.119999997, 0, 0), (0.119999997, 0.0799999982, 0), (0.119999997, 0.159999996, 0), (0.119999997, 0.239999995, 0), (0.119999997, 0.319999993, 0), (0.119999997, 0.400000006, 0), (0.119999997, 0.479999989, 0), (0.119999997, 0.560000002, 0), (0.119999997, 0.639999986, 0), (0.119999997, 0.720000029, 0), (0.119999997, 0.800000012, 0), (0.119999997, 0.879999995, 0), (0.119999997, 0.959999979, 0), (0.119999997, 1.03999996, 0), (0.119999997, 1.12, 0), (0.119999997, 1.20000005, 0), (0.119999997, 1.27999997, 0), (0.119999997, 1.36000001, 0), (0.119999997, 1.44000006, 0), (0.119999997, 1.51999998, 0), (0.119999997, 1.60000002, 0), (0.119999997, 1.67999995, 0), (0.119999997, 1.75999999, 0), (0.119999997, 1.84000003, 0), (0.119999997, 1.91999996, 0), (0.119999997, 2, 0), (0.119999997, 2.07999992, 0), (0.119999997, 2.16000009, 0), (0.119999997, 2.24000001, 0), (0.119999997, 2.31999993, 0), (0.119999997, 2.4000001, 0), (0.119999997, 2.48000002, 0), (0.119999997, 2.55999994, 0), (0.119999997, 2.6400001, 0), (0.119999997, 2.72000003, 0), (0.119999997, 2.79999995, 0), (0.119999997, 2.88000011, 0), (0.119999997, 2.96000004, 0), (0.119999997, 3.03999996, 0), (0.119999997, 3.11999989, 0), (0.119999997, 3.20000005, 0), (0.119999997, 3.27999997, 0), (0.119999997, 3.3599999, 0), (0.119999997, 3.44000006, 0), (0.119999997, 3.51999998, 0), (0.119999997, 3.5999999, 0), (0.119999997, 3.68000007, 0), (0.119999997, 3.75999999, 0), (0.119999997, 3.83999991, 0), (0.119999997, 3.92000008, 0), (0.119999997, 4, 0), (0.119999997, 4.07999992, 0), (0.119999997, 4.15999985, 0), (0.119999997, 4.23999977, 0), (0.119999997, 4.32000017, 0), (0.119999997, 4.4000001, 0), (0.119999997, 4.48000002, 0), (0.119999997, 4.55999994, 0), (0.119999997, 4.63999987, 0), (0.119999997, 4.71999979, 0), (0.119999997, 4.80000019, 0), (0.119999997, 4.88000011, 0), (0.119999997, 4.96000004, 0), (0.119999997, 5.03999996, 0), (0.119999997, 5.11999989, 0), (0.119999997, 5.19999981, 0), (0.119999997, 5.28000021, 0), (0.119999997, 5.36000013, 0), (0.119999997, 5.44000006, 0), (0.119999997, 5.51999998, 0), (0.119999997, 5.5999999, 0), (0.239999995, 0, 0), (0.239999995, 0.0799999982, 0), (0.239999995, 0.159999996, 0), (0.239999995, 0.239999995, 0), (0.239999995, 0.319999993, 0), (0.239999995, 0.400000006, 0), (0.239999995, 0.479999989, 0), (0.239999995, 0.560000002, 0), (0.239999995, 0.639999986, 0), (0.239999995, 0.720000029, 0), (0.239999995, 0.800000012, 0), (0.239999995, 0.879999995, 0), (0.239999995, 0.959999979, 0), (0.239999995, 1.03999996, 0), (0.239999995, 1.12, 0), (0.239999995, 1.20000005, 0), (0.239999995, 1.27999997, 0), (0.239999995, 1.36000001, 0), (0.239999995, 1.44000006, 0), (0.239999995, 1.51999998, 0), (0.239999995, 1.60000002, 0), (0.239999995, 1.67999995, 0), (0.239999995, 1.75999999, 0), (0.239999995, 1.84000003, 0), (0.239999995, 1.91999996, 0), (0.239999995, 2, 0), (0.239999995, 2.07999992, 0), (0.239999995, 2.16000009, 0), (0.239999995, 2.24000001, 0), (0.239999995, 2.31999993, 0), (0.239999995, 2.4000001, 0), (0.239999995, 2.48000002, 0), (0.239999995, 2.55999994, 0), (0.239999995, 2.6400001, 0), (0.239999995, 2.72000003, 0), (0.239999995, 2.79999995, 0), (0.239999995, 2.88000011, 0), (0.239999995, 2.96000004, 0), (0.239999995, 3.03999996, 0), (0.239999995, 3.11999989, 0), (0.239999995, 3.20000005, 0), (0.239999995, 3.27999997, 0), (0.239999995, 3.3599999, 0), (0.239999995, 3.44000006, 0), (0.239999995, 3.51999998, 0), (0.239999995, 3.5999999, 0), (0.239999995, 3.68000007, 0), (0.239999995, 3.75999999, 0), (0.239999995, 3.83999991, 0), (0.239999995, 3.92000008, 0), (0.239999995, 4, 0), (0.239999995, 4.07999992, 0), (0.239999995, 4.15999985, 0), (0.239999995, 4.23999977, 0), (0.239999995, 4.32000017, 0), (0.239999995, 4.4000001, 0), (0.239999995, 4.48000002, 0), (0.239999995, 4.55999994, 0), (0.239999995, 4.63999987, 0), (0.239999995, 4.71999979, 0), (0.239999995, 4.80000019, 0), (0.239999995, 4.88000011, 0), (0.239999995, 4.96000004, 0), (0.239999995, 5.03999996, 0), (0.239999995, 5.11999989, 0), (0.239999995, 5.19999981, 0), (0.239999995, 5.28000021, 0), (0.239999995, 5.36000013, 0), (0.239999995, 5.44000006, 0), (0.239999995, 5.51999998, 0), (0.239999995, 5.5999999, 0), (0.360000014, 0, 0), (0.360000014, 0.0799999982, 0), (0.360000014, 0.159999996, 0), (0.360000014, 0.239999995, 0), (0.360000014, 0.319999993, 0), (0.360000014, 0.400000006, 0), (0.360000014, 0.479999989, 0), (0.360000014, 0.560000002, 0), (0.360000014, 0.639999986, 0), (0.360000014, 0.720000029, 0), (0.360000014, 0.800000012, 0), (0.360000014, 0.879999995, 0), (0.360000014, 0.959999979, 0), (0.360000014, 1.03999996, 0), (0.360000014, 1.12, 0), (0.360000014, 1.20000005, 0), (0.360000014, 1.27999997, 0), (0.360000014, 1.36000001, 0), (0.360000014, 1.44000006, 0), (0.360000014, 1.51999998, 0), (0.360000014, 1.60000002, 0), (0.360000014, 1.67999995, 0), (0.360000014, 1.75999999, 0), (0.360000014, 1.84000003, 0), (0.360000014, 1.91999996, 0), (0.360000014, 2, 0), (0.360000014, 2.07999992, 0), (0.360000014, 2.16000009, 0), (0.360000014, 2.24000001, 0), (0.360000014, 2.31999993, 0), (0.360000014, 2.4000001, 0), (0.360000014, 2.48000002, 0), (0.360000014, 2.55999994, 0), (0.360000014, 2.6400001, 0), (0.360000014, 2.72000003, 0), (0.360000014, 2.79999995, 0), (0.360000014, 2.88000011, 0), (0.360000014, 2.96000004, 0), (0.360000014, 3.03999996, 0), (0.360000014, 3.11999989, 0), (0.360000014, 3.20000005, 0), (0.360000014, 3.27999997, 0), (0.360000014, 3.3599999, 0), (0.360000014, 3.44000006, 0), (0.360000014, 3.51999998, 0), (0.360000014, 3.5999999, 0), (0.360000014, 3.68000007, 0), (0.360000014, 3.75999999, 0), (0.360000014, 3.83999991, 0), (0.360000014, 3.92000008, 0), (0.360000014, 4, 0), (0.360000014, 4.07999992, 0), (0.360000014, 4.15999985, 0), (0.360000014, 4.23999977, 0), (0.360000014, 4.32000017, 0), (0.360000014, 4.4000001, 0), (0.360000014, 4.48000002, 0), (0.360000014, 4.55999994, 0), (0.360000014, 4.63999987, 0), (0.360000014, 4.71999979, 0), (0.360000014, 4.80000019, 0), (0.360000014, 4.88000011, 0), (0.360000014, 4.96000004, 0), (0.360000014, 5.03999996, 0), (0.360000014, 5.11999989, 0), (0.360000014, 5.19999981, 0), (0.360000014, 5.28000021, 0), (0.360000014, 5.36000013, 0), (0.360000014, 5.44000006, 0), (0.360000014, 5.51999998, 0), (0.360000014, 5.5999999, 0), (0.479999989, 0, 0), (0.479999989, 0.0799999982, 0), (0.479999989, 0.159999996, 0), (0.479999989, 0.239999995, 0), (0.479999989, 0.319999993, 0), (0.479999989, 0.400000006, 0), (0.479999989, 0.479999989, 0), (0.479999989, 0.560000002, 0), (0.479999989, 0.639999986, 0), (0.479999989, 0.720000029, 0), (0.479999989, 0.800000012, 0), (0.479999989, 0.879999995, 0), (0.479999989, 0.959999979, 0), (0.479999989, 1.03999996, 0), (0.479999989, 1.12, 0), (0.479999989, 1.20000005, 0), (0.479999989, 1.27999997, 0), (0.479999989, 1.36000001, 0), (0.479999989, 1.44000006, 0), (0.479999989, 1.51999998, 0), (0.479999989, 1.60000002, 0), (0.479999989, 1.67999995, 0), (0.479999989, 1.75999999, 0), (0.479999989, 1.84000003, 0), (0.479999989, 1.91999996, 0), (0.479999989, 2, 0), (0.479999989, 2.07999992, 0), (0.479999989, 2.16000009, 0), (0.479999989, 2.24000001, 0), (0.479999989, 2.31999993, 0), (0.479999989, 2.4000001, 0), (0.479999989, 2.48000002, 0), (0.479999989, 2.55999994, 0), (0.479999989, 2.6400001, 0), (0.479999989, 2.72000003, 0), (0.479999989, 2.79999995, 0), (0.479999989, 2.88000011, 0), (0.479999989, 2.96000004, 0), (0.479999989, 3.03999996, 0), (0.479999989, 3.11999989, 0), (0.479999989, 3.20000005, 0), (0.479999989, 3.27999997, 0), (0.479999989, 3.3599999, 0), (0.479999989, 3.44000006, 0), (0.479999989, 3.51999998, 0), (0.479999989, 3.5999999, 0), (0.479999989, 3.68000007, 0), (0.479999989, 3.75999999, 0), (0.479999989, 3.83999991, 0), (0.479999989, 3.92000008, 0), (0.479999989, 4, 0), (0.479999989, 4.07999992, 0), (0.479999989, 4.15999985, 0), (0.479999989, 4.23999977, 0), (0.479999989, 4.32000017, 0), (0.479999989, 4.4000001, 0), (0.479999989, 4.48000002, 0), (0.479999989, 4.55999994, 0), (0.479999989, 4.63999987, 0), (0.479999989, 4.71999979, 0), (0.479999989, 4.80000019, 0), (0.479999989, 4.88000011, 0), (0.479999989, 4.96000004, 0), (0.479999989, 5.03999996, 0), (0.479999989, 5.11999989, 0), (0.479999989, 5.19999981, 0), (0.479999989, 5.28000021, 0), (0.479999989, 5.36000013, 0), (0.479999989, 5.44000006, 0), (0.479999989, 5.51999998, 0), (0.479999989, 5.5999999, 0), (0.600000024, 0, 0), (0.600000024, 0.0799999982, 0), (0.600000024, 0.159999996, 0), (0.600000024, 0.239999995, 0), (0.600000024, 0.319999993, 0), (0.600000024, 0.400000006, 0), (0.600000024, 0.479999989, 0), (0.600000024, 0.560000002, 0), (0.600000024, 0.639999986, 0), (0.600000024, 0.720000029, 0), (0.600000024, 0.800000012, 0), (0.600000024, 0.879999995, 0), (0.600000024, 0.959999979, 0), (0.600000024, 1.03999996, 0), (0.600000024, 1.12, 0), (0.600000024, 1.20000005, 0), (0.600000024, 1.27999997, 0), (0.600000024, 1.36000001, 0), (0.600000024, 1.44000006, 0), (0.600000024, 1.51999998, 0), (0.600000024, 1.60000002, 0), (0.600000024, 1.67999995, 0), (0.600000024, 1.75999999, 0), (0.600000024, 1.84000003, 0), (0.600000024, 1.91999996, 0), (0.600000024, 2, 0), (0.600000024, 2.07999992, 0), (0.600000024, 2.16000009, 0), (0.600000024, 2.24000001, 0), (0.600000024, 2.31999993, 0), (0.600000024, 2.4000001, 0), (0.600000024, 2.48000002, 0), (0.600000024, 2.55999994, 0), (0.600000024, 2.6400001, 0), (0.600000024, 2.72000003, 0), (0.600000024, 2.79999995, 0), (0.600000024, 2.88000011, 0), (0.600000024, 2.96000004, 0), (0.600000024, 3.03999996, 0), (0.600000024, 3.11999989, 0), (0.600000024, 3.20000005, 0), (0.600000024, 3.27999997, 0), (0.600000024, 3.3599999, 0), (0.600000024, 3.44000006, 0), (0.600000024, 3.51999998, 0), (0.600000024, 3.5999999, 0), (0.600000024, 3.68000007, 0), (0.600000024, 3.75999999, 0), (0.600000024, 3.83999991, 0), (0.600000024, 3.92000008, 0), (0.600000024, 4, 0), (0.600000024, 4.07999992, 0), (0.600000024, 4.15999985, 0), (0.600000024, 4.23999977, 0), (0.600000024, 4.32000017, 0), (0.600000024, 4.4000001, 0), (0.600000024, 4.48000002, 0), (0.600000024, 4.55999994, 0), (0.600000024, 4.63999987, 0), (0.600000024, 4.71999979, 0), (0.600000024, 4.80000019, 0), (0.600000024, 4.88000011, 0), (0.600000024, 4.96000004, 0), (0.600000024, 5.03999996, 0), (0.600000024, 5.11999989, 0), (0.600000024, 5.19999981, 0), (0.600000024, 5.28000021, 0), (0.600000024, 5.36000013, 0), (0.600000024, 5.44000006, 0), (0.600000024, 5.51999998, 0), (0.600000024, 5.5999999, 0), (0.720000029, 0, 0), (0.720000029, 0.0799999982, 0), (0.720000029, 0.159999996, 0), (0.720000029, 0.239999995, 0), (0.720000029, 0.319999993, 0), (0.720000029, 0.400000006, 0), (0.720000029, 0.479999989, 0), (0.720000029, 0.560000002, 0), (0.720000029, 0.639999986, 0), (0.720000029, 0.720000029, 0), (0.720000029, 0.800000012, 0), (0.720000029, 0.879999995, 0), (0.720000029, 0.959999979, 0), (0.720000029, 1.03999996, 0), (0.720000029, 1.12, 0), (0.720000029, 1.20000005, 0), (0.720000029, 1.27999997, 0), (0.720000029, 1.36000001, 0), (0.720000029, 1.44000006, 0), (0.720000029, 1.51999998, 0), (0.720000029, 1.60000002, 0), (0.720000029, 1.67999995, 0), (0.720000029, 1.75999999, 0), (0.720000029, 1.84000003, 0), (0.720000029, 1.91999996, 0), (0.720000029, 2, 0), (0.720000029, 2.07999992, 0), (0.720000029, 2.16000009, 0), (0.720000029, 2.24000001, 0), (0.720000029, 2.31999993, 0), (0.720000029, 2.4000001, 0), (0.720000029, 2.48000002, 0), (0.720000029, 2.55999994, 0), (0.720000029, 2.6400001, 0), (0.720000029, 2.72000003, 0), (0.720000029, 2.79999995, 0), (0.720000029, 2.88000011, 0), (0.720000029, 2.96000004, 0), (0.720000029, 3.03999996, 0), (0.720000029, 3.11999989, 0), (0.720000029, 3.20000005, 0), (0.720000029, 3.27999997, 0), (0.720000029, 3.3599999, 0), (0.720000029, 3.44000006, 0), (0.720000029, 3.51999998, 0), (0.720000029, 3.5999999, 0), (0.720000029, 3.68000007, 0), (0.720000029, 3.75999999, 0), (0.720000029, 3.83999991, 0), (0.720000029, 3.92000008, 0), (0.720000029, 4, 0), (0.720000029, 4.07999992, 0), (0.720000029, 4.15999985, 0), (0.720000029, 4.23999977, 0), (0.720000029, 4.32000017, 0), (0.720000029, 4.4000001, 0), (0.720000029, 4.48000002, 0), (0.720000029, 4.55999994, 0), (0.720000029, 4.63999987, 0), (0.720000029, 4.71999979, 0), (0.720000029, 4.80000019, 0), (0.720000029, 4.88000011, 0), (0.720000029, 4.96000004, 0), (0.720000029, 5.03999996, 0), (0.720000029, 5.11999989, 0), (0.720000029, 5.19999981, 0), (0.720000029, 5.28000021, 0), (0.720000029, 5.36000013, 0), (0.720000029, 5.44000006, 0), (0.720000029, 5.51999998, 0), (0.720000029, 5.5999999, 0), (0.839999974, 0, 0), (0.839999974, 0.0799999982, 0), (0.839999974, 0.159999996, 0), (0.839999974, 0.239999995, 0), (0.839999974, 0.319999993, 0), (0.839999974, 0.400000006, 0), (0.839999974, 0.479999989, 0), (0.839999974, 0.560000002, 0), (0.839999974, 0.639999986, 0), (0.839999974, 0.720000029, 0), (0.839999974, 0.800000012, 0), (0.839999974, 0.879999995, 0), (0.839999974, 0.959999979, 0), (0.839999974, 1.03999996, 0), (0.839999974, 1.12, 0), (0.839999974, 1.20000005, 0), (0.839999974, 1.27999997, 0), (0.839999974, 1.36000001, 0), (0.839999974, 1.44000006, 0), (0.839999974, 1.51999998, 0), (0.839999974, 1.60000002, 0), (0.839999974, 1.67999995, 0), (0.839999974, 1.75999999, 0), (0.839999974, 1.84000003, 0), (0.839999974, 1.91999996, 0), (0.839999974, 2, 0), (0.839999974, 2.07999992, 0), (0.839999974, 2.16000009, 0), (0.839999974, 2.24000001, 0), (0.839999974, 2.31999993, 0), (0.839999974, 2.4000001, 0), (0.839999974, 2.48000002, 0), (0.839999974, 2.55999994, 0), (0.839999974, 2.6400001, 0), (0.839999974, 2.72000003, 0), (0.839999974, 2.79999995, 0), (0.839999974, 2.88000011, 0), (0.839999974, 2.96000004, 0), (0.839999974, 3.03999996, 0), (0.839999974, 3.11999989, 0), (0.839999974, 3.20000005, 0), (0.839999974, 3.27999997, 0), (0.839999974, 3.3599999, 0), (0.839999974, 3.44000006, 0), (0.839999974, 3.51999998, 0), (0.839999974, 3.5999999, 0), (0.839999974, 3.68000007, 0), (0.839999974, 3.75999999, 0), (0.839999974, 3.83999991, 0), (0.839999974, 3.92000008, 0), (0.839999974, 4, 0), (0.839999974, 4.07999992, 0), (0.839999974, 4.15999985, 0), (0.839999974, 4.23999977, 0), (0.839999974, 4.32000017, 0), (0.839999974, 4.4000001, 0), (0.839999974, 4.48000002, 0), (0.839999974, 4.55999994, 0), (0.839999974, 4.63999987, 0), (0.839999974, 4.71999979, 0), (0.839999974, 4.80000019, 0), (0.839999974, 4.88000011, 0), (0.839999974, 4.96000004, 0), (0.839999974, 5.03999996, 0), (0.839999974, 5.11999989, 0), (0.839999974, 5.19999981, 0), (0.839999974, 5.28000021, 0), (0.839999974, 5.36000013, 0), (0.839999974, 5.44000006, 0), (0.839999974, 5.51999998, 0), (0.839999974, 5.5999999, 0), (0.959999979, 0, 0), (0.959999979, 0.0799999982, 0), (0.959999979, 0.159999996, 0), (0.959999979, 0.239999995, 0), (0.959999979, 0.319999993, 0), (0.959999979, 0.400000006, 0), (0.959999979, 0.479999989, 0), (0.959999979, 0.560000002, 0), (0.959999979, 0.639999986, 0), (0.959999979, 0.720000029, 0), (0.959999979, 0.800000012, 0), (0.959999979, 0.879999995, 0), (0.959999979, 0.959999979, 0), (0.959999979, 1.03999996, 0), (0.959999979, 1.12, 0), (0.959999979, 1.20000005, 0), (0.959999979, 1.27999997, 0), (0.959999979, 1.36000001, 0), (0.959999979, 1.44000006, 0), (0.959999979, 1.51999998, 0), (0.959999979, 1.60000002, 0), (0.959999979, 1.67999995, 0), (0.959999979, 1.75999999, 0), (0.959999979, 1.84000003, 0), (0.959999979, 1.91999996, 0), (0.959999979, 2, 0), (0.959999979, 2.07999992, 0), (0.959999979, 2.16000009, 0), (0.959999979, 2.24000001, 0), (0.959999979, 2.31999993, 0), (0.959999979, 2.4000001, 0), (0.959999979, 2.48000002, 0), (0.959999979, 2.55999994, 0), (0.959999979, 2.6400001, 0), (0.959999979, 2.72000003, 0), (0.959999979, 2.79999995, 0), (0.959999979, 2.88000011, 0), (0.959999979, 2.96000004, 0), (0.959999979, 3.03999996, 0), (0.959999979, 3.11999989, 0), (0.959999979, 3.20000005, 0), (0.959999979, 3.27999997, 0), (0.959999979, 3.3599999, 0), (0.959999979, 3.44000006, 0), (0.959999979, 3.51999998, 0), (0.959999979, 3.5999999, 0), (0.959999979, 3.68000007, 0), (0.959999979, 3.75999999, 0), (0.959999979, 3.83999991, 0), (0.959999979, 3.92000008, 0), (0.959999979, 4, 0), (0.959999979, 4.07999992, 0), (0.959999979, 4.15999985, 0), (0.959999979, 4.23999977, 0), (0.959999979, 4.32000017, 0), (0.959999979, 4.4000001, 0), (0.959999979, 4.48000002, 0), (0.959999979, 4.55999994, 0), (0.959999979, 4.63999987, 0), (0.959999979, 4.71999979, 0), (0.959999979, 4.80000019, 0), (0.959999979, 4.88000011, 0), (0.959999979, 4.96000004, 0), (0.959999979, 5.03999996, 0), (0.959999979, 5.11999989, 0), (0.959999979, 5.19999981, 0), (0.959999979, 5.28000021, 0), (0.959999979, 5.36000013, 0), (0.959999979, 5.44000006, 0), (0.959999979, 5.51999998, 0), (0.959999979, 5.5999999, 0), (1.08000004, 0, 0), (1.08000004, 0.0799999982, 0), (1.08000004, 0.159999996, 0), (1.08000004, 0.239999995, 0), (1.08000004, 0.319999993, 0), (1.08000004, 0.400000006, 0), (1.08000004, 0.479999989, 0), (1.08000004, 0.560000002, 0), (1.08000004, 0.639999986, 0), (1.08000004, 0.720000029, 0), (1.08000004, 0.800000012, 0), (1.08000004, 0.879999995, 0), (1.08000004, 0.959999979, 0), (1.08000004, 1.03999996, 0), (1.08000004, 1.12, 0), (1.08000004, 1.20000005, 0), (1.08000004, 1.27999997, 0), (1.08000004, 1.36000001, 0), (1.08000004, 1.44000006, 0), (1.08000004, 1.51999998, 0), (1.08000004, 1.60000002, 0), (1.08000004, 1.67999995, 0), (1.08000004, 1.75999999, 0), (1.08000004, 1.84000003, 0), (1.08000004, 1.91999996, 0), (1.08000004, 2, 0), (1.08000004, 2.07999992, 0), (1.08000004, 2.16000009, 0), (1.08000004, 2.24000001, 0), (1.08000004, 2.31999993, 0), (1.08000004, 2.4000001, 0), (1.08000004, 2.48000002, 0), (1.08000004, 2.55999994, 0), (1.08000004, 2.6400001, 0), (1.08000004, 2.72000003, 0), (1.08000004, 2.79999995, 0), (1.08000004, 2.88000011, 0), (1.08000004, 2.96000004, 0), (1.08000004, 3.03999996, 0), (1.08000004, 3.11999989, 0), (1.08000004, 3.20000005, 0), (1.08000004, 3.27999997, 0), (1.08000004, 3.3599999, 0), (1.08000004, 3.44000006, 0), (1.08000004, 3.51999998, 0), (1.08000004, 3.5999999, 0), (1.08000004, 3.68000007, 0), (1.08000004, 3.75999999, 0), (1.08000004, 3.83999991, 0), (1.08000004, 3.92000008, 0), (1.08000004, 4, 0), (1.08000004, 4.07999992, 0), (1.08000004, 4.15999985, 0), (1.08000004, 4.23999977, 0), (1.08000004, 4.32000017, 0), (1.08000004, 4.4000001, 0), (1.08000004, 4.48000002, 0), (1.08000004, 4.55999994, 0), (1.08000004, 4.63999987, 0), (1.08000004, 4.71999979, 0), (1.08000004, 4.80000019, 0), (1.08000004, 4.88000011, 0), (1.08000004, 4.96000004, 0), (1.08000004, 5.03999996, 0), (1.08000004, 5.11999989, 0), (1.08000004, 5.19999981, 0), (1.08000004, 5.28000021, 0), (1.08000004, 5.36000013, 0), (1.08000004, 5.44000006, 0), (1.08000004, 5.51999998, 0), (1.08000004, 5.5999999, 0), (1.20000005, 0, 0), (1.20000005, 0.0799999982, 0), (1.20000005, 0.159999996, 0), (1.20000005, 0.239999995, 0), (1.20000005, 0.319999993, 0), (1.20000005, 0.400000006, 0), (1.20000005, 0.479999989, 0), (1.20000005, 0.560000002, 0), (1.20000005, 0.639999986, 0), (1.20000005, 0.720000029, 0), (1.20000005, 0.800000012, 0), (1.20000005, 0.879999995, 0), (1.20000005, 0.959999979, 0), (1.20000005, 1.03999996, 0), (1.20000005, 1.12, 0), (1.20000005, 1.20000005, 0), (1.20000005, 1.27999997, 0), (1.20000005, 1.36000001, 0), (1.20000005, 1.44000006, 0), (1.20000005, 1.51999998, 0), (1.20000005, 1.60000002, 0), (1.20000005, 1.67999995, 0), (1.20000005, 1.75999999, 0), (1.20000005, 1.84000003, 0), (1.20000005, 1.91999996, 0), (1.20000005, 2, 0), (1.20000005, 2.07999992, 0), (1.20000005, 2.16000009, 0), (1.20000005, 2.24000001, 0), (1.20000005, 2.31999993, 0), (1.20000005, 2.4000001, 0), (1.20000005, 2.48000002, 0), (1.20000005, 2.55999994, 0), (1.20000005, 2.6400001, 0), (1.20000005, 2.72000003, 0), (1.20000005, 2.79999995, 0), (1.20000005, 2.88000011, 0), (1.20000005, 2.96000004, 0), (1.20000005, 3.03999996, 0), (1.20000005, 3.11999989, 0), (1.20000005, 3.20000005, 0), (1.20000005, 3.27999997, 0), (1.20000005, 3.3599999, 0), (1.20000005, 3.44000006, 0), (1.20000005, 3.51999998, 0), (1.20000005, 3.5999999, 0), (1.20000005, 3.68000007, 0), (1.20000005, 3.75999999, 0), (1.20000005, 3.83999991, 0), (1.20000005, 3.92000008, 0), (1.20000005, 4, 0), (1.20000005, 4.07999992, 0), (1.20000005, 4.15999985, 0), (1.20000005, 4.23999977, 0), (1.20000005, 4.32000017, 0), (1.20000005, 4.4000001, 0), (1.20000005, 4.48000002, 0), (1.20000005, 4.55999994, 0), (1.20000005, 4.63999987, 0), (1.20000005, 4.71999979, 0), (1.20000005, 4.80000019, 0), (1.20000005, 4.88000011, 0), (1.20000005, 4.96000004, 0), (1.20000005, 5.03999996, 0), (1.20000005, 5.11999989, 0), (1.20000005, 5.19999981, 0), (1.20000005, 5.28000021, 0), (1.20000005, 5.36000013, 0), (1.20000005, 5.44000006, 0), (1.20000005, 5.51999998, 0), (1.20000005, 5.5999999, 0)]
        custom int[] cfd:cellTypes = [7, 7, 7, 7, 7, 7, 7, 7, 7, 7, 7, 7, 7, 7, 7, 7, 7, 7, 7, 7, 7, 7, 7, 7, 7, 7, 7, 7, 7, 7, 7, 7, 7, 7, 7, 7, 7, 7, 7, 7, 7, 7, 7, 7, 7, 7, 7, 7, 7, 7, 7, 7, 7, 7, 7, 7, 7, 7, 7, 7, 7, 7, 7, 7, 7, 7, 7, 7, 7, 7, 7, 7, 7, 7, 7, 7, 7, 7, 7, 7, 7, 7, 7, 7, 7, 7, 7, 7, 7, 7, 7, 7, 7, 7, 7, 7, 7, 7, 7, 7, 7, 7, 7, 7, 7, 7, 7, 7, 7, 7, 7, 7, 7, 7, 7, 7, 7, 7, 7, 7, 7, 7, 7, 7, 7, 7, 7, 7, 7, 7, 7, 7, 7, 7, 7, 7, 7, 7, 7, 7, 7, 7, 7, 7, 7, 7, 7, 7, 7, 7, 7, 7, 7, 7, 7, 7, 7, 7, 7, 7, 7, 7, 7, 7, 7, 7, 7, 7, 7, 7, 7, 7, 7, 7, 7, 7, 7, 7, 7, 7, 7, 7, 7, 7, 7, 7, 7, 7, 7, 7, 7, 7, 7, 7, 7, 7, 7, 7, 7, 7, 7, 7, 7, 7, 7, 7, 7, 7, 7, 7, 7, 7, 7, 7, 7, 7, 7, 7, 7, 7, 7, 7, 7, 7, 7, 7, 7, 7, 7, 7, 7, 7, 7, 7, 7, 7, 7, 7, 7, 7, 7, 7, 7, 7, 7, 7, 7, 7, 7, 7, 7, 7, 7, 7, 7, 7, 7, 7, 7, 7, 7, 7, 7, 7, 7, 7, 7, 7, 7, 7, 7, 7, 7, 7, 7, 7, 7, 7, 7, 7, 7, 7, 7, 7, 7, 7, 7, 7, 7, 7, 7, 7, 7, 7, 7, 7, 7, 7, 7, 7, 7, 7, 7, 7, 7, 7, 7, 7, 7, 7, 7, 7, 7, 7, 7, 7, 7, 7, 7, 7, 7, 7, 7, 7, 7, 7, 7, 7, 7, 7, 7, 7, 7, 7, 7, 7, 7, 7, 7, 7, 7, 7, 7, 7, 7, 7, 7, 7, 7, 7, 7, 7, 7, 7, 7, 7, 7, 7, 7, 7, 7, 7, 7, 7, 7, 7, 7, 7, 7, 7, 7, 7, 7, 7, 7, 7, 7, 7, 7, 7, 7, 7, 7, 7, 7, 7, 7, 7, 7, 7, 7, 7, 7, 7, 7, 7, 7, 7, 7, 7, 7, 7, 7, 7, 7, 7, 7, 7, 7, 7, 7, 7, 7, 7, 7, 7, 7, 7, 7, 7, 7, 7, 7, 7, 7, 7, 7, 7, 7, 7, 7, 7, 7, 7, 7, 7, 7, 7, 7, 7, 7, 7, 7, 7, 7, 7, 7, 7, 7, 7, 7, 7, 7, 7, 7, 7, 7, 7, 7, 7, 7, 7, 7, 7, 7, 7, 7, 7, 7, 7, 7, 7, 7, 7, 7, 7, 7, 7, 7, 7, 7, 7, 7, 7, 7, 7, 7, 7, 7, 7, 7, 7, 7, 7, 7, 7, 7, 7, 7, 7, 7, 7, 7, 7, 7, 7, 7, 7, 7, 7, 7, 7, 7, 7, 7, 7, 7, 7, 7, 7, 7, 7, 7, 7, 7, 7, 7, 7, 7, 7, 7, 7, 7, 7, 7, 7, 7, 7, 7, 7, 7, 7, 7, 7, 7, 7, 7, 7, 7, 7, 7, 7, 7, 7, 7, 7, 7, 7, 7, 7, 7, 7, 7, 7, 7, 7, 7, 7, 7, 7, 7, 7, 7, 7, 7, 7, 7, 7, 7, 7, 7, 7, 7, 7, 7, 7, 7, 7, 7, 7, 7, 7, 7, 7, 7, 7, 7, 7, 7, 7, 7, 7, 7, 7, 7, 7, 7, 7, 7, 7, 7, 7, 7, 7, 7, 7, 7, 7, 7, 7, 7, 7, 7, 7, 7, 7, 7, 7, 7, 7, 7, 7, 7, 7, 7, 7, 7, 7, 7, 7, 7, 7, 7, 7, 7, 7, 7, 7, 7, 7, 7, 7, 7, 7, 7, 7, 7, 7, 7, 7, 7, 7, 7, 7, 7, 7, 7, 7, 7, 7, 7, 7, 7, 7, 7, 7, 7, 7, 7, 7, 7, 7, 7, 7, 7, 7, 7, 7, 7, 7, 7, 7, 7, 7, 7, 7, 7, 7, 7, 7]
        uniform token subdivisionScheme = "none"
        }
    }
}
